<svg width="23" height="23" viewBox="0 0 23 23" fill="none" xmlns="http://www.w3.org/2000/svg">
<path d="M11.8795 14.3182L8.72949 17.4682H13.4545L9.51699 21.4057" stroke="white" stroke-width="2" stroke-linecap="round" stroke-linejoin="round"/>
<circle cx="2.42939" cy="21.4057" r="0.39375" stroke="white" stroke-width="2.3" stroke-linecap="round" stroke-linejoin="round"/>
<circle cx="15.0295" cy="21.4057" r="0.39375" stroke="white" stroke-width="2" stroke-linecap="round" stroke-linejoin="round"/>
<path d="M8.72935 8.01819C8.72931 8.28146 8.74579 8.54448 8.7787 8.80569C8.74579 8.54448 8.72931 8.28146 8.72935 8.01819C8.73085 7.62258 8.77059 7.22805 8.848 6.84009" stroke="white" stroke-width="2" stroke-linecap="round" stroke-linejoin="round"/>
<path fill-rule="evenodd" clip-rule="evenodd" d="M15.0294 14.3182C18.3565 14.3222 21.1131 11.7384 21.3242 8.41798C21.5354 5.09761 19.1282 2.18546 15.8274 1.768C12.5266 1.35055 9.47024 3.57173 8.84807 6.84011C7.38982 6.14104 5.65227 6.40602 4.46869 7.50799C3.28511 8.60996 2.89687 10.3242 3.49015 11.8286C4.08344 13.333 5.53727 14.3208 7.15442 14.3182H15.0294Z" stroke="white" stroke-width="2" stroke-linecap="round" stroke-linejoin="round"/>
<path d="M6.36677 17.4682L2.70752 21.1275" stroke="white" stroke-width="2" stroke-linecap="round" stroke-linejoin="round"/>
<path d="M18.9669 17.4682L15.3076 21.1275" stroke="white" stroke-width="2" stroke-linecap="round" stroke-linejoin="round"/>
</svg>
