<svg width="35" height="65" viewBox="0 0 35 65" fill="none" xmlns="http://www.w3.org/2000/svg">
<path d="M17.276 37.184C17.276 37.4347 17.2917 37.6852 17.323 37.934C17.2917 37.6852 17.276 37.4347 17.276 37.184C17.278 36.8073 17.3158 36.4316 17.389 36.062" stroke="#057BFF" stroke-width="2" stroke-linecap="round" stroke-linejoin="round"/>
<path fill-rule="evenodd" clip-rule="evenodd" d="M23.276 43.184C26.4446 43.1878 29.07 40.727 29.271 37.5647C29.4721 34.4025 27.1795 31.629 24.0359 31.2314C20.8923 30.8339 17.9815 32.9493 17.389 36.062C16.0001 35.3962 14.3453 35.6486 13.2181 36.6981C12.0909 37.7476 11.7211 39.3802 12.2862 40.8129C12.8512 42.2457 14.2358 43.1864 15.776 43.184H23.276Z" stroke="#057BFF" stroke-width="2" stroke-linecap="round" stroke-linejoin="round"/>
<path d="M12.026 29.684C12.026 29.9347 12.0417 30.1852 12.073 30.434C12.0417 30.1852 12.026 29.9347 12.026 29.684C12.028 29.3073 12.0658 28.9316 12.139 28.562" stroke="#057BFF" stroke-width="2" stroke-linecap="round" stroke-linejoin="round"/>
<path d="M23.835 28.176C23.1283 25.461 20.6346 23.5982 17.8307 23.6907C15.0268 23.7832 12.6613 25.8064 12.135 28.562C10.7462 27.8962 9.09142 28.1486 7.9642 29.1981C6.83699 30.2476 6.46723 31.8802 7.03227 33.3129C7.5973 34.7457 8.9819 35.6864 10.522 35.684" stroke="#057BFF" stroke-width="2" stroke-linecap="round" stroke-linejoin="round"/>
</svg>
